<svg width="80" height="80" viewBox="0 0 80 80" fill="none" xmlns="http://www.w3.org/2000/svg">
<g clip-path="url(#clip0)">
<path d="M69.9109 18.167C70.0688 18.0423 70.2009 17.8881 70.2999 17.7129L70.9807 18.3938L70.4492 16.5367C69.2933 12.4981 67.1282 8.82042 64.1579 5.8501C61.1876 2.87978 57.5099 0.714676 53.4713 -0.441164L53.4713 -0.441166L53.4698 -0.441612C53.0745 -0.553324 52.6511 -0.503461 52.2927 -0.302994C51.9342 -0.102528 51.6701 0.232122 51.5584 0.627338C51.4467 1.02255 51.4965 1.44596 51.697 1.80441C51.8975 2.16286 52.2321 2.42699 52.6273 2.53871L52.7633 2.05756L52.6256 2.53821C56.1541 3.54939 59.3673 5.44176 61.9628 8.03723C64.5581 10.6326 66.4504 13.8455 67.4616 17.3738C67.517 17.5691 67.6102 17.7516 67.7359 17.9109C67.8619 18.0705 68.0181 18.2037 68.1956 18.303C68.3731 18.4023 68.5684 18.4656 68.7703 18.4894C68.9723 18.5132 69.177 18.4969 69.3727 18.4416C69.5684 18.3863 69.7512 18.293 69.9109 18.167Z" fill="#5E8CF5" stroke="#5E8CF5"/>
<path d="M52.0236 10.7892C52.1579 10.9376 52.3202 11.0581 52.5011 11.1438C55.1769 12.4147 57.3322 14.57 58.603 17.2458C58.689 17.4267 58.8097 17.589 58.9583 17.7233C59.1069 17.8576 59.2806 17.9614 59.4693 18.0286C59.6581 18.0958 59.8582 18.1252 60.0583 18.1151C60.2584 18.105 60.4545 18.0556 60.6355 17.9697C60.8165 17.8837 60.9788 17.763 61.1131 17.6144C61.2475 17.4657 61.3512 17.2921 61.4185 17.1033C61.4857 16.9146 61.5151 16.7145 61.505 16.5144C61.4949 16.3143 61.4454 16.1181 61.3595 15.9371L61.3594 15.937C59.7865 12.6259 57.1194 9.95881 53.8083 8.38587L53.5938 8.8375L53.8077 8.3856C53.6266 8.29984 53.4303 8.2506 53.2302 8.24068C53.03 8.23077 52.8299 8.26038 52.6412 8.32781C52.4525 8.39525 52.2789 8.49919 52.1303 8.63372C51.9818 8.76824 51.8612 8.9307 51.7754 9.11182C51.6897 9.29295 51.6404 9.48919 51.6305 9.68935C51.6206 9.8895 51.6502 10.0897 51.7177 10.2784C51.7851 10.4671 51.889 10.6407 52.0236 10.7892Z" fill="#5E8CF5" stroke="#5E8CF5"/>
<mask id="path-3-outside-1" maskUnits="userSpaceOnUse" x="9.26044" y="13.5223" width="47" height="68" fill="black">
<rect fill="white" x="9.26044" y="13.5223" width="47" height="68"/>
<path d="M41.6969 38.1938L45.5438 26.6313C46.6061 26.761 47.6824 26.5559 48.6225 26.0445C49.5626 25.5331 50.3196 24.741 50.7879 23.7786C51.2561 22.8163 51.4122 21.7318 51.2345 20.6765C51.0567 19.6211 50.5539 18.6476 49.7962 17.8918C49.0386 17.136 48.0638 16.6356 47.0081 16.4604C45.9523 16.2852 44.8682 16.444 43.907 16.9146C42.9458 17.3852 42.1555 18.1441 41.6464 19.0855C41.1373 20.0268 40.9348 21.1036 41.0672 22.1656L29.55 26.0469L19.3469 15.8438C18.805 15.2997 18.1326 14.9037 17.394 14.6937C16.6554 14.4836 15.8753 14.4664 15.1281 14.6438C14.3868 14.8141 13.7017 15.1722 13.1386 15.6836C12.5755 16.1949 12.1533 16.8425 11.9125 17.5641C10.505 21.7607 9.98825 26.2048 10.3953 30.6125C11.0938 38.5453 14.8688 45.7328 20.4844 50.95C19.3894 52.0129 18.7366 53.4504 18.6569 54.9743C18.5772 56.4982 19.0765 57.9959 20.0547 59.1672C19.9211 59.3995 19.8046 59.6413 19.7063 59.8906L14.7969 72.425C14.4675 73.2665 14.3485 74.1757 14.4503 75.0736C14.5521 75.9715 14.8715 76.831 15.3808 77.5775C15.8902 78.3239 16.574 78.9348 17.373 79.3569C18.172 79.7791 19.062 79.9999 19.9656 80H33.4641C34.4747 79.9997 35.4661 79.7235 36.3313 79.2012C37.1965 78.6789 37.9027 77.9304 38.3738 77.0363C38.8449 76.1421 39.063 75.1364 39.0045 74.1275C38.9461 73.1185 38.6134 72.1447 38.0422 71.3109L29.5547 58.9266C29.9327 58.4242 30.23 57.8659 30.4359 57.2719C33.2169 58.3862 36.1458 59.0884 39.1297 59.3563C40.112 59.4438 41.0906 59.4875 42.0656 59.4875C45.5068 59.492 48.9256 58.9352 52.1875 57.8391C52.9091 57.5983 53.5566 57.1761 54.068 56.613C54.5794 56.0499 54.9375 55.3648 55.1078 54.6234C55.2853 53.8763 55.2682 53.0962 55.0581 52.3575C54.848 51.6189 54.452 50.9465 53.9078 50.4047L41.6969 38.1938ZM40.075 36.5719L36.325 32.8219L43.3297 25.8172C43.4172 25.875 43.5078 25.9297 43.5984 25.9828L40.075 36.5719ZM46.1547 18.4609C46.5966 18.4614 47.0331 18.557 47.4347 18.7413C47.8363 18.9256 48.1935 19.1943 48.482 19.529C48.7705 19.8637 48.9834 20.2566 49.1065 20.681C49.2295 21.1054 49.2596 21.5513 49.1949 21.9884C49.1301 22.4255 48.972 22.8435 48.7312 23.214C48.4904 23.5845 48.1726 23.8988 47.7995 24.1355C47.4264 24.3722 47.0066 24.5257 46.5689 24.5856C46.1311 24.6456 45.6855 24.6105 45.2625 24.4828L45.1859 24.4531L45.1375 24.4391C44.6973 24.2838 44.2981 24.0307 43.9698 23.6989C43.6416 23.3672 43.3928 22.9652 43.2422 22.5234V22.5141L43.2313 22.4844C43.0815 22.0229 43.0432 21.5325 43.1194 21.0534C43.1956 20.5742 43.3841 20.1199 43.6696 19.7276C43.955 19.3353 44.3293 19.0162 44.7618 18.7963C45.1943 18.5764 45.6727 18.462 46.1578 18.4625L46.1547 18.4609ZM41.7188 24.1078C41.7688 24.1953 41.8219 24.2797 41.875 24.3641L34.8703 31.3688L31.1656 27.6641L41.7188 24.1078ZM36.5625 76.0813C36.2708 76.6501 35.8268 77.1267 35.2799 77.4578C34.733 77.7889 34.1049 77.9615 33.4656 77.9563H19.9656C19.3959 77.9562 18.8349 77.8172 18.3311 77.5511C17.8274 77.285 17.3962 76.9 17.075 76.4295C16.7538 75.9589 16.5524 75.4171 16.4881 74.8511C16.4238 74.285 16.4987 73.7118 16.7063 73.1813L21.6141 60.6469C21.6287 60.6094 21.6443 60.5719 21.6609 60.5344C22.6346 61.1031 23.7479 61.3881 24.875 61.3572C26.0021 61.3262 27.0981 60.9806 28.0391 60.3594V60.3594L36.3453 72.4813C36.7104 73.0027 36.924 73.6152 36.9623 74.2506C37.0007 74.886 36.8623 75.5197 36.5625 76.0813V76.0813ZM27.6109 58.0547L27.5125 58.15C26.7809 58.8435 25.8175 59.2402 24.8097 59.263C23.8019 59.2858 22.8216 58.9331 22.0594 58.2734L21.7766 58.0219C21.2799 57.4889 20.9379 56.8307 20.7872 56.1179C20.6365 55.4052 20.6828 54.6649 20.9212 53.9765C21.1596 53.2881 21.5811 52.6777 22.1403 52.2108C22.6996 51.7439 23.3754 51.4382 24.0953 51.3266C24.298 51.2951 24.5027 51.2794 24.7078 51.2797C25.5739 51.2806 26.4164 51.5618 27.1094 52.0811C27.8025 52.6004 28.309 53.33 28.5531 54.1609C28.6601 54.5273 28.7127 54.9074 28.7094 55.2891C28.7091 56.3186 28.3124 57.3084 27.6016 58.0531L27.6109 58.0547ZM53.1031 54.1484C53.0142 54.5504 52.8221 54.9222 52.5456 55.2272C52.2691 55.5321 51.9179 55.7597 51.5266 55.8875C47.5989 57.2056 43.4393 57.6888 39.3141 57.3063C36.3739 57.042 33.4918 56.3274 30.7688 55.1875C30.7524 54.1834 30.4868 53.1991 29.9959 52.323C29.5049 51.447 28.804 50.7067 27.9561 50.1686C27.1081 49.6305 26.1398 49.3116 25.1381 49.2404C24.1364 49.1693 23.1327 49.3481 22.2172 49.7609C16.7766 44.8563 13.1094 38.0047 12.4313 30.425C12.349 29.5031 12.3078 28.5849 12.3078 27.6703C12.3043 24.4543 12.8252 21.2593 13.85 18.2109C13.9788 17.8206 14.2071 17.4705 14.5123 17.1952C14.8175 16.9198 15.1891 16.7287 15.5906 16.6406C15.9986 16.5446 16.4244 16.5542 16.8276 16.6685C17.2309 16.7828 17.5984 16.998 17.8953 17.2938L28.5563 27.9547L52.45 51.8484C52.7473 52.1447 52.9635 52.5124 53.0779 52.9162C53.1922 53.3201 53.2009 53.7465 53.1031 54.1547V54.1484Z"/>
</mask>
<path d="M41.6969 38.1938L45.5438 26.6313C46.6061 26.761 47.6824 26.5559 48.6225 26.0445C49.5626 25.5331 50.3196 24.741 50.7879 23.7786C51.2561 22.8163 51.4122 21.7318 51.2345 20.6765C51.0567 19.6211 50.5539 18.6476 49.7962 17.8918C49.0386 17.136 48.0638 16.6356 47.0081 16.4604C45.9523 16.2852 44.8682 16.444 43.907 16.9146C42.9458 17.3852 42.1555 18.1441 41.6464 19.0855C41.1373 20.0268 40.9348 21.1036 41.0672 22.1656L29.55 26.0469L19.3469 15.8438C18.805 15.2997 18.1326 14.9037 17.394 14.6937C16.6554 14.4836 15.8753 14.4664 15.1281 14.6438C14.3868 14.8141 13.7017 15.1722 13.1386 15.6836C12.5755 16.1949 12.1533 16.8425 11.9125 17.5641C10.505 21.7607 9.98825 26.2048 10.3953 30.6125C11.0938 38.5453 14.8688 45.7328 20.4844 50.95C19.3894 52.0129 18.7366 53.4504 18.6569 54.9743C18.5772 56.4982 19.0765 57.9959 20.0547 59.1672C19.9211 59.3995 19.8046 59.6413 19.7063 59.8906L14.7969 72.425C14.4675 73.2665 14.3485 74.1757 14.4503 75.0736C14.5521 75.9715 14.8715 76.831 15.3808 77.5775C15.8902 78.3239 16.574 78.9348 17.373 79.3569C18.172 79.7791 19.062 79.9999 19.9656 80H33.4641C34.4747 79.9997 35.4661 79.7235 36.3313 79.2012C37.1965 78.6789 37.9027 77.9304 38.3738 77.0363C38.8449 76.1421 39.063 75.1364 39.0045 74.1275C38.9461 73.1185 38.6134 72.1447 38.0422 71.3109L29.5547 58.9266C29.9327 58.4242 30.23 57.8659 30.4359 57.2719C33.2169 58.3862 36.1458 59.0884 39.1297 59.3563C40.112 59.4438 41.0906 59.4875 42.0656 59.4875C45.5068 59.492 48.9256 58.9352 52.1875 57.8391C52.9091 57.5983 53.5566 57.1761 54.068 56.613C54.5794 56.0499 54.9375 55.3648 55.1078 54.6234C55.2853 53.8763 55.2682 53.0962 55.0581 52.3575C54.848 51.6189 54.452 50.9465 53.9078 50.4047L41.6969 38.1938ZM40.075 36.5719L36.325 32.8219L43.3297 25.8172C43.4172 25.875 43.5078 25.9297 43.5984 25.9828L40.075 36.5719ZM46.1547 18.4609C46.5966 18.4614 47.0331 18.557 47.4347 18.7413C47.8363 18.9256 48.1935 19.1943 48.482 19.529C48.7705 19.8637 48.9834 20.2566 49.1065 20.681C49.2295 21.1054 49.2596 21.5513 49.1949 21.9884C49.1301 22.4255 48.972 22.8435 48.7312 23.214C48.4904 23.5845 48.1726 23.8988 47.7995 24.1355C47.4264 24.3722 47.0066 24.5257 46.5689 24.5856C46.1311 24.6456 45.6855 24.6105 45.2625 24.4828L45.1859 24.4531L45.1375 24.4391C44.6973 24.2838 44.2981 24.0307 43.9698 23.6989C43.6416 23.3672 43.3928 22.9652 43.2422 22.5234V22.5141L43.2313 22.4844C43.0815 22.0229 43.0432 21.5325 43.1194 21.0534C43.1956 20.5742 43.3841 20.1199 43.6696 19.7276C43.955 19.3353 44.3293 19.0162 44.7618 18.7963C45.1943 18.5764 45.6727 18.462 46.1578 18.4625L46.1547 18.4609ZM41.7188 24.1078C41.7688 24.1953 41.8219 24.2797 41.875 24.3641L34.8703 31.3688L31.1656 27.6641L41.7188 24.1078ZM36.5625 76.0813C36.2708 76.6501 35.8268 77.1267 35.2799 77.4578C34.733 77.7889 34.1049 77.9615 33.4656 77.9563H19.9656C19.3959 77.9562 18.8349 77.8172 18.3311 77.5511C17.8274 77.285 17.3962 76.9 17.075 76.4295C16.7538 75.9589 16.5524 75.4171 16.4881 74.8511C16.4238 74.285 16.4987 73.7118 16.7063 73.1813L21.6141 60.6469C21.6287 60.6094 21.6443 60.5719 21.6609 60.5344C22.6346 61.1031 23.7479 61.3881 24.875 61.3572C26.0021 61.3262 27.0981 60.9806 28.0391 60.3594V60.3594L36.3453 72.4813C36.7104 73.0027 36.924 73.6152 36.9623 74.2506C37.0007 74.886 36.8623 75.5197 36.5625 76.0813V76.0813ZM27.6109 58.0547L27.5125 58.15C26.7809 58.8435 25.8175 59.2402 24.8097 59.263C23.8019 59.2858 22.8216 58.9331 22.0594 58.2734L21.7766 58.0219C21.2799 57.4889 20.9379 56.8307 20.7872 56.1179C20.6365 55.4052 20.6828 54.6649 20.9212 53.9765C21.1596 53.2881 21.5811 52.6777 22.1403 52.2108C22.6996 51.7439 23.3754 51.4382 24.0953 51.3266C24.298 51.2951 24.5027 51.2794 24.7078 51.2797C25.5739 51.2806 26.4164 51.5618 27.1094 52.0811C27.8025 52.6004 28.309 53.33 28.5531 54.1609C28.6601 54.5273 28.7127 54.9074 28.7094 55.2891C28.7091 56.3186 28.3124 57.3084 27.6016 58.0531L27.6109 58.0547ZM53.1031 54.1484C53.0142 54.5504 52.8221 54.9222 52.5456 55.2272C52.2691 55.5321 51.9179 55.7597 51.5266 55.8875C47.5989 57.2056 43.4393 57.6888 39.3141 57.3063C36.3739 57.042 33.4918 56.3274 30.7688 55.1875C30.7524 54.1834 30.4868 53.1991 29.9959 52.323C29.5049 51.447 28.804 50.7067 27.9561 50.1686C27.1081 49.6305 26.1398 49.3116 25.1381 49.2404C24.1364 49.1693 23.1327 49.3481 22.2172 49.7609C16.7766 44.8563 13.1094 38.0047 12.4313 30.425C12.349 29.5031 12.3078 28.5849 12.3078 27.6703C12.3043 24.4543 12.8252 21.2593 13.85 18.2109C13.9788 17.8206 14.2071 17.4705 14.5123 17.1952C14.8175 16.9198 15.1891 16.7287 15.5906 16.6406C15.9986 16.5446 16.4244 16.5542 16.8276 16.6685C17.2309 16.7828 17.5984 16.998 17.8953 17.2938L28.5563 27.9547L52.45 51.8484C52.7473 52.1447 52.9635 52.5124 53.0779 52.9162C53.1922 53.3201 53.2009 53.7465 53.1031 54.1547V54.1484Z" fill="#5E8CF5"/>
<path d="M41.6969 38.1938L45.5438 26.6313C46.6061 26.761 47.6824 26.5559 48.6225 26.0445C49.5626 25.5331 50.3196 24.741 50.7879 23.7786C51.2561 22.8163 51.4122 21.7318 51.2345 20.6765C51.0567 19.6211 50.5539 18.6476 49.7962 17.8918C49.0386 17.136 48.0638 16.6356 47.0081 16.4604C45.9523 16.2852 44.8682 16.444 43.907 16.9146C42.9458 17.3852 42.1555 18.1441 41.6464 19.0855C41.1373 20.0268 40.9348 21.1036 41.0672 22.1656L29.55 26.0469L19.3469 15.8438C18.805 15.2997 18.1326 14.9037 17.394 14.6937C16.6554 14.4836 15.8753 14.4664 15.1281 14.6438C14.3868 14.8141 13.7017 15.1722 13.1386 15.6836C12.5755 16.1949 12.1533 16.8425 11.9125 17.5641C10.505 21.7607 9.98825 26.2048 10.3953 30.6125C11.0938 38.5453 14.8688 45.7328 20.4844 50.95C19.3894 52.0129 18.7366 53.4504 18.6569 54.9743C18.5772 56.4982 19.0765 57.9959 20.0547 59.1672C19.9211 59.3995 19.8046 59.6413 19.7063 59.8906L14.7969 72.425C14.4675 73.2665 14.3485 74.1757 14.4503 75.0736C14.5521 75.9715 14.8715 76.831 15.3808 77.5775C15.8902 78.3239 16.574 78.9348 17.373 79.3569C18.172 79.7791 19.062 79.9999 19.9656 80H33.4641C34.4747 79.9997 35.4661 79.7235 36.3313 79.2012C37.1965 78.6789 37.9027 77.9304 38.3738 77.0363C38.8449 76.1421 39.063 75.1364 39.0045 74.1275C38.9461 73.1185 38.6134 72.1447 38.0422 71.3109L29.5547 58.9266C29.9327 58.4242 30.23 57.8659 30.4359 57.2719C33.2169 58.3862 36.1458 59.0884 39.1297 59.3563C40.112 59.4438 41.0906 59.4875 42.0656 59.4875C45.5068 59.492 48.9256 58.9352 52.1875 57.8391C52.9091 57.5983 53.5566 57.1761 54.068 56.613C54.5794 56.0499 54.9375 55.3648 55.1078 54.6234C55.2853 53.8763 55.2682 53.0962 55.0581 52.3575C54.848 51.6189 54.452 50.9465 53.9078 50.4047L41.6969 38.1938ZM40.075 36.5719L36.325 32.8219L43.3297 25.8172C43.4172 25.875 43.5078 25.9297 43.5984 25.9828L40.075 36.5719ZM46.1547 18.4609C46.5966 18.4614 47.0331 18.557 47.4347 18.7413C47.8363 18.9256 48.1935 19.1943 48.482 19.529C48.7705 19.8637 48.9834 20.2566 49.1065 20.681C49.2295 21.1054 49.2596 21.5513 49.1949 21.9884C49.1301 22.4255 48.972 22.8435 48.7312 23.214C48.4904 23.5845 48.1726 23.8988 47.7995 24.1355C47.4264 24.3722 47.0066 24.5257 46.5689 24.5856C46.1311 24.6456 45.6855 24.6105 45.2625 24.4828L45.1859 24.4531L45.1375 24.4391C44.6973 24.2838 44.2981 24.0307 43.9698 23.6989C43.6416 23.3672 43.3928 22.9652 43.2422 22.5234V22.5141L43.2313 22.4844C43.0815 22.0229 43.0432 21.5325 43.1194 21.0534C43.1956 20.5742 43.3841 20.1199 43.6696 19.7276C43.955 19.3353 44.3293 19.0162 44.7618 18.7963C45.1943 18.5764 45.6727 18.462 46.1578 18.4625L46.1547 18.4609ZM41.7188 24.1078C41.7688 24.1953 41.8219 24.2797 41.875 24.3641L34.8703 31.3688L31.1656 27.6641L41.7188 24.1078ZM36.5625 76.0813C36.2708 76.6501 35.8268 77.1267 35.2799 77.4578C34.733 77.7889 34.1049 77.9615 33.4656 77.9563H19.9656C19.3959 77.9562 18.8349 77.8172 18.3311 77.5511C17.8274 77.285 17.3962 76.9 17.075 76.4295C16.7538 75.9589 16.5524 75.4171 16.4881 74.8511C16.4238 74.285 16.4987 73.7118 16.7063 73.1813L21.6141 60.6469C21.6287 60.6094 21.6443 60.5719 21.6609 60.5344C22.6346 61.1031 23.7479 61.3881 24.875 61.3572C26.0021 61.3262 27.0981 60.9806 28.0391 60.3594V60.3594L36.3453 72.4813C36.7104 73.0027 36.924 73.6152 36.9623 74.2506C37.0007 74.886 36.8623 75.5197 36.5625 76.0813V76.0813ZM27.6109 58.0547L27.5125 58.15C26.7809 58.8435 25.8175 59.2402 24.8097 59.263C23.8019 59.2858 22.8216 58.9331 22.0594 58.2734L21.7766 58.0219C21.2799 57.4889 20.9379 56.8307 20.7872 56.1179C20.6365 55.4052 20.6828 54.6649 20.9212 53.9765C21.1596 53.2881 21.5811 52.6777 22.1403 52.2108C22.6996 51.7439 23.3754 51.4382 24.0953 51.3266C24.298 51.2951 24.5027 51.2794 24.7078 51.2797C25.5739 51.2806 26.4164 51.5618 27.1094 52.0811C27.8025 52.6004 28.309 53.33 28.5531 54.1609C28.6601 54.5273 28.7127 54.9074 28.7094 55.2891C28.7091 56.3186 28.3124 57.3084 27.6016 58.0531L27.6109 58.0547ZM53.1031 54.1484C53.0142 54.5504 52.8221 54.9222 52.5456 55.2272C52.2691 55.5321 51.9179 55.7597 51.5266 55.8875C47.5989 57.2056 43.4393 57.6888 39.3141 57.3063C36.3739 57.042 33.4918 56.3274 30.7688 55.1875C30.7524 54.1834 30.4868 53.1991 29.9959 52.323C29.5049 51.447 28.804 50.7067 27.9561 50.1686C27.1081 49.6305 26.1398 49.3116 25.1381 49.2404C24.1364 49.1693 23.1327 49.3481 22.2172 49.7609C16.7766 44.8563 13.1094 38.0047 12.4313 30.425C12.349 29.5031 12.3078 28.5849 12.3078 27.6703C12.3043 24.4543 12.8252 21.2593 13.85 18.2109C13.9788 17.8206 14.2071 17.4705 14.5123 17.1952C14.8175 16.9198 15.1891 16.7287 15.5906 16.6406C15.9986 16.5446 16.4244 16.5542 16.8276 16.6685C17.2309 16.7828 17.5984 16.998 17.8953 17.2938L28.5563 27.9547L52.45 51.8484C52.7473 52.1447 52.9635 52.5124 53.0779 52.9162C53.1922 53.3201 53.2009 53.7465 53.1031 54.1547V54.1484Z" stroke="#5E8CF5" stroke-width="2" mask="url(#path-3-outside-1)"/>
</g>
<defs>
<clipPath id="clip0">
<rect width="80" height="80" fill="white"/>
</clipPath>
</defs>
</svg>
